[Header]                  # Header keywords are followed by a single value
FileType htr              # single word string
DataType HTRS             # Hierarchical translations followed by rotations and Scale
FileVersion 1             # integer
NumSegments   22        # integer
NumFrames   4          # integer
DataFrameRate    60      # integer
EulerRotationOrder ZYX    # one word string
CalibrationUnits mm   # one word string
RotationUnits Degrees     # one word string
GlobalAxisofGravity Y        # character, X or Y or Z
BoneLengthAxis Y
ScaleFactor 1.0000
[SegmentNames&Hierarchy]
#CHILD         PARENT
LowerTorso	GLOBAL
MidTorso1	LowerTorso
MidTorso2	MidTorso1
UpperTorso	MidTorso2
Neck	UpperTorso
Head	Neck
LCollar	UpperTorso
LUpArm	LCollar
LLowArm	LUpArm
LHand	LLowArm
RCollar	UpperTorso
RUpArm	RCollar
RLowArm	RUpArm
RHand	RLowArm
RThigh	LowerTorso
RLowLeg	RThigh
RFoot	RLowLeg
RToe	RFoot
LThigh	LowerTorso
LLowLeg	LThigh
LFoot	LLowLeg
LToe	LFoot
[BasePosition]
#SegmentName Tx, Ty, Tz, Rx, Ry, Rz, BoneLength
LowerTorso	245.858011	950.547112	300.901792	3.160114	-0.119681	0.216534	50.177140	
MidTorso1	0.000000	50.177140	0.000000	12.744977	0.544086	-1.233692	50.243103	
MidTorso2	0.000000	50.243103	0.000000	-8.561622	-5.666755	-0.324056	70.108070	
UpperTorso	0.000000	70.108070	0.000000	-7.840640	5.423498	1.565454	211.798493	
Neck	0.000000	211.798493	0.000000	3.763396	2.354772	0.143986	247.477358	
Head	0.000000	247.477358	0.000000	87.188098	-1.617490	-0.909978	97.755902	
LCollar	5.963899	207.774288	0.020038	-0.085181	3.120430	-88.053499	154.341182	
LUpArm	0.000000	154.341182	0.000000	17.609330	2.601210	1.098979	257.694232	
LLowArm	0.000000	257.694232	0.000000	-4.295116	-4.411555	-0.381267	245.288314	
LHand	0.000000	245.288314	0.000000	-1.254656	0.451892	-3.187610	143.943585	
RCollar	-6.407295	207.548200	-0.033576	-3.957489	-2.573361	89.782717	159.716168	
RUpArm	0.000000	159.716168	0.000000	10.569861	0.025507	1.593474	259.181013	
RLowArm	0.000000	259.181013	0.000000	2.433186	-0.094719	0.439860	254.783021	
RHand	0.000000	254.783021	0.000000	-2.521327	-1.940663	10.821380	138.724995	
RThigh	-104.582724	-43.868855	71.110148	1.186921	1.056410	177.271085	484.665755	
RLowLeg	0.000000	484.665755	0.000000	-9.413113	-2.560999	2.584420	338.943480	
RFoot	0.000000	338.943480	0.000000	38.119802	-1.210697	-2.462270	108.422675	
RToe	0.000000	108.422675	0.000000	62.205972	5.729825	0.107186	135.948299	
LThigh	104.514322	-44.027056	71.110540	1.887019	-3.794944	-176.973714	484.665500	
LLowLeg	0.000000	484.665500	0.000000	-9.413064	2.561022	-2.584327	338.944952	
LFoot	0.000000	338.944952	0.000000	38.119895	1.210631	2.462181	108.422417	
LToe	0.000000	108.422417	0.000000	62.206117	-5.729564	-0.107296	135.948400	
#Beginning of Data. Separated by tabs
[LowerTorso]
#Fr     Tx      Ty      Tz      Rx      Ry      Rz      SF
219	447.148010	320.149414	325.412750	9.465628	3.377195	-41.148594	1.000000	
220	439.171722	304.077362	325.276886	13.012989	1.922901	-41.676727	1.000000	
221	428.066162	285.727448	331.292938	12.974841	2.185797	-42.566013	1.000000	
222	419.271606	264.464935	337.929779	12.867357	2.187459	-43.160572	1.000000	
[MidTorso1]
#Fr     Tx      Ty      Tz      Rx      Ry      Rz      SF
219	0.000000	0.000000	0.000000	3.475494	-3.643754	1.543619	1.000000	
220	0.000000	0.000000	0.000000	2.149662	-2.634067	1.104557	1.000000	
221	0.000000	0.000000	0.000000	1.967606	-2.064299	0.873259	1.000000	
222	0.000000	0.000000	0.000000	1.835181	-1.434448	0.656330	1.000000	
[MidTorso2]
#Fr     Tx      Ty      Tz      Rx      Ry      Rz      SF
219	0.000000	0.000000	0.000000	3.670165	-3.750060	0.628750	1.000000	
220	0.000000	0.000000	0.000000	2.281606	-2.720300	0.480271	1.000000	
221	0.000000	0.000000	0.000000	2.068213	-2.127069	0.357562	1.000000	
222	0.000000	0.000000	0.000000	1.906179	-1.475350	0.252682	1.000000	
[UpperTorso]
#Fr     Tx      Ty      Tz      Rx      Ry      Rz      SF
219	0.000000	0.000000	0.000000	3.485867	-3.954468	0.431683	1.000000	
220	0.000000	0.000000	0.000000	2.150144	-2.853247	0.302974	1.000000	
221	0.000000	0.000000	0.000000	1.964948	-2.240079	0.243933	1.000000	
222	0.000000	0.000000	0.000000	1.831020	-1.573700	0.215485	1.000000	
[Neck]
#Fr     Tx      Ty      Tz      Rx      Ry      Rz      SF
219	0.000000	0.000000	0.000000	21.682516	-10.189466	31.148453	1.000000	
220	0.000000	0.000000	0.000000	18.908415	-10.397413	29.728739	1.000000	
221	0.000000	0.000000	0.000000	16.229437	-9.364423	29.275879	1.000000	
222	0.000000	0.000000	0.000000	13.659442	-8.580474	28.764410	1.000000	
[Head]
#Fr     Tx      Ty      Tz      Rx      Ry      Rz      SF
219	0.000000	0.000000	0.000000	3.113431	11.181714	-0.426877	1.000000	
220	0.000000	0.000000	0.000000	2.845301	11.562997	-1.056060	1.000000	
221	0.000000	0.000000	0.000000	2.127273	11.216673	-0.798061	1.000000	
222	0.000000	0.000000	0.000000	2.152104	10.887088	-0.514582	1.000000	
[LCollar]
#Fr     Tx      Ty      Tz      Rx      Ry      Rz      SF
219	0.000000	0.000000	0.000000	6.171977	-1.188430	10.857353	1.000000	
220	0.000000	0.000000	0.000000	2.439659	-0.526698	12.175503	1.000000	
221	0.000000	0.000000	0.000000	1.040916	-0.242484	13.112020	1.000000	
222	0.000000	0.000000	0.000000	0.155359	-0.036832	13.336783	1.000000	
[LUpArm]
#Fr     Tx      Ty      Tz      Rx      Ry      Rz      SF
219	0.000000	0.000000	0.000000	2.005192	-22.435753	0.703736	1.000000	
220	0.000000	0.000000	0.000000	3.028717	-26.268795	2.274731	1.000000	
221	0.000000	0.000000	0.000000	-0.326993	-28.770889	5.699786	1.000000	
222	0.000000	0.000000	0.000000	-4.635523	-30.571671	8.962730	1.000000	
[LLowArm]
#Fr     Tx      Ty      Tz      Rx      Ry      Rz      SF
219	0.000000	0.000000	0.000000	115.205093	-0.011331	-0.017853	1.000000	
220	0.000000	0.000000	0.000000	115.767952	-0.011278	-0.017964	1.000000	
221	0.000000	0.000000	0.000000	117.978645	-0.011060	-0.018395	1.000000	
222	0.000000	0.000000	0.000000	120.538864	-0.010787	-0.018883	1.000000	
[LHand]
#Fr     Tx      Ty      Tz      Rx      Ry      Rz      SF
219	0.000000	0.000000	0.000000	27.160347	-12.220345	9.370022	1.000000	
220	0.000000	0.000000	0.000000	29.170111	-13.577906	7.912265	1.000000	
221	0.000000	0.000000	0.000000	29.191551	-16.041254	8.313733	1.000000	
222	0.000000	0.000000	0.000000	28.896656	-18.025864	8.967476	1.000000	
[RCollar]
#Fr     Tx      Ty      Tz      Rx      Ry      Rz      SF
219	0.000000	0.000000	0.000000	6.477342	-1.356905	11.781236	1.000000	
220	0.000000	0.000000	0.000000	6.277821	-1.189912	10.689742	1.000000	
221	0.000000	0.000000	0.000000	6.946338	-1.321650	10.719980	1.000000	
222	0.000000	0.000000	0.000000	7.597621	-1.480426	10.961679	1.000000	
[RUpArm]
#Fr     Tx      Ty      Tz      Rx      Ry      Rz      SF
219	0.000000	0.000000	0.000000	-14.594481	28.818539	-18.057369	1.000000	
220	0.000000	0.000000	0.000000	-14.925880	27.678455	-19.446775	1.000000	
221	0.000000	0.000000	0.000000	-16.836077	28.564775	-22.559053	1.000000	
222	0.000000	0.000000	0.000000	-19.105268	30.480759	-25.616552	1.000000	
[RLowArm]
#Fr     Tx      Ty      Tz      Rx      Ry      Rz      SF
219	0.000000	0.000000	0.000000	45.097424	0.000012	0.000020	1.000000	
220	0.000000	0.000000	0.000000	43.742565	0.000012	0.000020	1.000000	
221	0.000000	0.000000	0.000000	43.913578	0.000012	0.000020	1.000000	
222	0.000000	0.000000	0.000000	45.472095	0.000012	0.000021	1.000000	
[RHand]
#Fr     Tx      Ty      Tz      Rx      Ry      Rz      SF
219	0.000000	0.000000	0.000000	7.059661	-2.006024	-27.367855	1.000000	
220	0.000000	0.000000	0.000000	6.636215	-1.083442	-28.598925	1.000000	
221	0.000000	0.000000	0.000000	5.521550	-2.968497	-27.296558	1.000000	
222	0.000000	0.000000	0.000000	4.833739	-5.667607	-26.209120	1.000000	
[RThigh]
#Fr     Tx      Ty      Tz      Rx      Ry      Rz      SF
219	0.000000	0.000000	0.000000	11.176294	25.257330	-22.967682	1.000000	
220	0.000000	0.000000	0.000000	19.341612	27.088223	-20.101913	1.000000	
221	0.000000	0.000000	0.000000	18.655727	26.500120	-19.621716	1.000000	
222	0.000000	0.000000	0.000000	17.439869	25.750820	-19.944092	1.000000	
[RLowLeg]
#Fr     Tx      Ty      Tz      Rx      Ry      Rz      SF
219	0.000000	0.000000	0.000000	3.914322	0.000000	0.000001	1.000000	
220	0.000000	0.000000	0.000000	-7.326518	0.000000	-0.000003	1.000000	
221	0.000000	0.000000	0.000000	-9.283813	0.000000	-0.000003	1.000000	
222	0.000000	0.000000	0.000000	-9.203519	0.000000	-0.000003	1.000000	
[RFoot]
#Fr     Tx      Ty      Tz      Rx      Ry      Rz      SF
219	0.000000	0.000000	0.000000	-16.066236	-2.109241	-7.282675	1.000000	
220	0.000000	0.000000	0.000000	-6.872149	-0.463194	-3.837475	1.000000	
221	0.000000	0.000000	0.000000	-6.544948	-0.406909	-3.542083	1.000000	
222	0.000000	0.000000	0.000000	-7.350105	-0.438838	-3.398009	1.000000	
[RToe]
#Fr     Tx      Ty      Tz      Rx      Ry      Rz      SF
219	0.000000	0.000000	0.000000	-13.138017	-0.000026	-0.000002	1.000000	
220	0.000000	0.000000	0.000000	-17.217533	-0.000034	-0.000002	1.000000	
221	0.000000	0.000000	0.000000	-16.217134	-0.000032	-0.000002	1.000000	
222	0.000000	0.000000	0.000000	-15.551608	-0.000030	-0.000002	1.000000	
[LThigh]
#Fr     Tx      Ty      Tz      Rx      Ry      Rz      SF
219	0.000000	0.000000	0.000000	42.015018	-45.543213	2.596642	1.000000	
220	0.000000	0.000000	0.000000	48.601444	-48.011002	-1.971816	1.000000	
221	0.000000	0.000000	0.000000	47.964970	-47.790768	0.072610	1.000000	
222	0.000000	0.000000	0.000000	45.864773	-46.958965	2.824565	1.000000	
[LLowLeg]
#Fr     Tx      Ty      Tz      Rx      Ry      Rz      SF
219	0.000000	0.000000	0.000000	-26.729218	0.000046	-0.000023	1.000000	
220	0.000000	0.000000	0.000000	-25.210627	0.000044	-0.000021	1.000000	
221	0.000000	0.000000	0.000000	-22.422878	0.000040	-0.000018	1.000000	
222	0.000000	0.000000	0.000000	-18.583120	0.000033	-0.000014	1.000000	
[LFoot]
#Fr     Tx      Ty      Tz      Rx      Ry      Rz      SF
219	0.000000	0.000000	0.000000	-15.693419	-2.248075	-7.947877	1.000000	
220	0.000000	0.000000	0.000000	-16.794132	-1.920498	-6.336214	1.000000	
221	0.000000	0.000000	0.000000	-17.990179	-2.279656	-6.983524	1.000000	
222	0.000000	0.000000	0.000000	-19.348820	-2.765644	-7.823875	1.000000	
[LToe]
#Fr     Tx      Ty      Tz      Rx      Ry      Rz      SF
219	0.000000	0.000000	0.000000	-34.854759	-0.000096	0.000019	1.000000	
220	0.000000	0.000000	0.000000	-31.715870	-0.000088	0.000015	1.000000	
221	0.000000	0.000000	0.000000	-28.899130	-0.000081	0.000011	1.000000	
222	0.000000	0.000000	0.000000	-26.425404	-0.000074	0.000009	1.000000	
[EndOfFile]
